<svg xmlns="http://www.w3.org/2000/svg" version="1.1" xmlns:xlink="http://www.w3.org/1999/xlink" xmlns:svgjs="http://svgjs.dev/svgjs" width="1000" height="1000" viewBox="0 0 1000 1000"><rect width="1000" height="1000" fill="#000000"></rect><g transform="matrix(0.7,0,0,0.7,149.57575757575756,282.1265587044535)"><svg viewBox="0 0 396 247" data-background-color="#161618" preserveAspectRatio="xMidYMid meet" height="623" width="1000" xmlns="http://www.w3.org/2000/svg" xmlns:xlink="http://www.w3.org/1999/xlink"><g id="tight-bounds" transform="matrix(1,0,0,1,0.2400000000000091,-0.09999999999999432)"><svg viewBox="0 0 395.52 247.2" height="247.2" width="395.52"><g><svg></svg></g><g><svg viewBox="0 0 395.52 247.2" height="247.2" width="395.52"><g transform="matrix(1,0,0,1,75.54432,108.09617434945706)"><svg viewBox="0 0 244.43135999999998 31.007651301085875" height="31.007651301085875" width="244.43135999999998"><g><svg viewBox="0 0 244.43135999999998 31.007651301085875" height="31.007651301085875" width="244.43135999999998"><g><svg viewBox="0 0 302.0697548098342 38.319443240621204" height="31.007651301085875" width="244.43135999999998"><g transform="matrix(1,0,0,1,57.638394809834224,5.295957785064148)"><svg viewBox="0 0 244.43135999999998 27.727527670492908" height="27.727527670492908" width="244.43135999999998"><g id="textblocktransform"><svg viewBox="0 0 244.43135999999998 27.727527670492908" height="27.727527670492908" width="244.43135999999998" id="textblock"><g><svg viewBox="0 0 244.43135999999998 27.727527670492908" height="27.727527670492908" width="244.43135999999998"><g transform="matrix(1,0,0,1,0,0)"><svg width="244.43135999999998" viewBox="0.3500000238418579 -32.400001525878906 370.2099914550781 42" height="27.727527670492908" data-palette-color="#ffffff"><path d="M9.5-31.95L9.4-10.6 9.45-5.8Q9.45-2.15 7.75 0.28 6.05 2.7 1.9 5L1.9 5 0.85 3.55 0.85 3.15Q4.2 1.15 5.6-0.83 7-2.8 7-5.75L7-5.75 7-10.3 6.9-29.75 0.65-29.75 0.35-30 0.55-31.95 9.5-31.95ZM25.9-23.1Q30.4-23.1 32.92-20.08 35.45-17.05 35.45-11.65L35.45-11.65Q35.45-6 32.8-2.85 30.15 0.3 25.45 0.3L25.45 0.3Q20.95 0.3 18.45-2.73 15.95-5.75 15.95-11.1L15.95-11.1Q15.95-16.75 18.57-19.93 21.2-23.1 25.9-23.1L25.9-23.1ZM25.8-21.15Q22.3-21.15 20.35-18.65 18.4-16.15 18.4-11.6L18.4-11.6Q18.4-6.8 20.27-4.23 22.15-1.65 25.55-1.65L25.55-1.65Q29.1-1.65 31.05-4.13 33-6.6 33-11.15L33-11.15Q33-15.95 31.1-18.55 29.2-21.15 25.8-21.15L25.8-21.15ZM51.1-22.8Q51.7-22.8 52.4-22.7L52.4-22.7 52.4-20.2 52.05-20.1Q51.15-20.25 50.45-20.25L50.45-20.25Q48.75-20.25 47.25-18.82 45.75-17.4 44.2-14.2L44.2-14.2 44.2-9.9 44.35 0 41.75 0 41.9-9.75 41.8-22.55 44.25-22.85 44.25-17.75 44.5-17.75Q47.35-22.8 51.1-22.8L51.1-22.8ZM76.39-21.4Q74.09-20.8 71.39-20.3L71.39-20.3 71.34-20.15Q72.79-18.25 72.79-15.35L72.79-15.35Q72.79-11.75 70.52-9.63 68.24-7.5 64.34-7.5L64.34-7.5Q62.49-7.5 60.84-8.05L60.84-8.05Q59.69-7.2 59.29-6.68 58.89-6.15 58.89-5.65L58.89-5.65Q58.89-4.55 60.32-4.08 61.74-3.6 64.79-3.15L64.79-3.15Q67.74-2.7 69.64-2.2 71.54-1.7 72.89-0.6 74.24 0.5 74.24 2.4L74.24 2.4Q74.24 4.35 72.84 6 71.44 7.65 69.04 8.63 66.64 9.6 63.84 9.6L63.84 9.6Q60.04 9.6 57.87 7.88 55.69 6.15 55.69 3.45L55.69 3.45Q56.19 1.95 57.34 0.78 58.49-0.4 60.44-1.55L60.44-1.55 60.44-1.8Q58.54-2.3 57.47-3.18 56.39-4.05 56.39-5.55L56.39-5.55Q57.04-7 59.39-8.55L59.39-8.55 59.39-8.7Q56.19-10.7 56.19-15.1L56.19-15.1Q56.19-18.8 58.47-20.9 60.74-23 64.64-23L64.64-23Q67.39-23 69.24-21.95L69.24-21.95Q73.44-22.75 76.09-23.5L76.09-23.5 76.39-23.3 76.39-21.4ZM64.44-9.4Q67.24-9.4 68.84-10.98 70.44-12.55 70.44-15.35L70.44-15.35Q70.44-18.1 68.92-19.6 67.39-21.1 64.59-21.1L64.59-21.1Q61.74-21.1 60.14-19.55 58.54-18 58.54-15.2L58.54-15.2Q58.54-12.5 60.09-10.95 61.64-9.4 64.44-9.4L64.44-9.4ZM71.89 2.75Q71.89 1.45 70.89 0.7 69.89-0.05 68.42-0.4 66.94-0.75 64.44-1.1L64.44-1.1 62.79-1.35Q60.49-0.1 59.27 1.15 58.04 2.4 58.04 3.8L58.04 3.8Q58.04 5.45 59.64 6.58 61.24 7.7 64.09 7.7L64.09 7.7Q66.24 7.7 68.02 7.03 69.79 6.35 70.84 5.2 71.89 4.05 71.89 2.75L71.89 2.75ZM89.14-23.1Q92.89-23.1 94.97-20.88 97.04-18.65 97.04-14.65L97.04-14.65Q97.04-13.65 96.89-12.6L96.89-12.6 96.49-12.15 81.69-12.05 81.69-11.3Q81.69-6.85 83.72-4.35 85.74-1.85 89.39-1.85L89.39-1.85Q91.19-1.85 92.94-2.43 94.69-3 96.04-4L96.04-4 96.39-3.8 96.04-1.55Q92.79 0.3 89.09 0.3L89.09 0.3Q84.54 0.3 81.92-2.78 79.29-5.85 79.29-11.2L79.29-11.2Q79.29-14.8 80.49-17.5 81.69-20.2 83.94-21.65 86.19-23.1 89.14-23.1L89.14-23.1ZM94.54-14.15L94.64-15Q94.64-17.9 93.19-19.53 91.74-21.15 89.09-21.15L89.09-21.15Q86.24-21.15 84.34-19.23 82.44-17.3 81.89-13.95L81.89-13.95 94.54-14.15ZM131.84-32L131.84-30 112.89-2.2 127.69-2.2 131.84-2.4 132.04-2.15 131.79 0.05 126.99 0 112.09 0 109.74 0.1 109.74-1.9 128.69-29.75 114.59-29.75 110.69-29.5 110.49-29.8 110.74-32 115.19-31.95 129.64-31.95 131.84-32ZM138.53 0L138.63-9.75 138.58-22.55 141.08-22.85 141.03-9.9 141.08 0 138.53 0ZM139.83-32.4Q140.63-32.4 141.06-31.95 141.48-31.5 141.48-30.75L141.48-30.75Q141.48-29.95 141.03-29.48 140.58-29 139.78-29L139.78-29Q138.98-29 138.56-29.43 138.13-29.85 138.13-30.65L138.13-30.65Q138.13-31.45 138.58-31.93 139.03-32.4 139.83-32.4L139.83-32.4ZM181.33-16.25L181.28-9.85 181.33 0 178.73 0 178.93-15.75Q178.93-18.15 177.73-19.48 176.53-20.8 174.28-20.8L174.28-20.8Q172.48-20.8 170.63-19.78 168.78-18.75 167.03-16.85L167.03-16.85 167.03-16.25 166.98-9.85 167.03 0 164.43 0 164.63-15.75Q164.63-18.15 163.43-19.48 162.23-20.8 159.98-20.8L159.98-20.8Q156.43-20.8 152.63-16.7L152.63-16.7 152.63-9.9 152.73 0 150.13 0 150.28-9.75 150.18-22.55 152.63-22.85 152.63-19.2 152.93-19.2Q154.63-20.85 156.43-21.85 158.23-22.85 159.93-23.05L159.93-23.05Q162.53-23.05 164.23-22 165.93-20.95 166.63-19L166.63-19 166.88-19Q168.63-20.7 170.56-21.75 172.48-22.8 174.23-23.05L174.23-23.05Q177.68-23.05 179.51-21.28 181.33-19.5 181.33-16.25L181.33-16.25ZM220.38-16.25L220.33-9.85 220.38 0 217.78 0 217.98-15.75Q217.98-18.15 216.78-19.48 215.58-20.8 213.33-20.8L213.33-20.8Q211.53-20.8 209.68-19.78 207.83-18.75 206.08-16.85L206.08-16.85 206.08-16.25 206.03-9.85 206.08 0 203.48 0 203.68-15.75Q203.68-18.15 202.48-19.48 201.28-20.8 199.03-20.8L199.03-20.8Q195.48-20.8 191.68-16.7L191.68-16.7 191.68-9.9 191.78 0 189.18 0 189.33-9.75 189.23-22.55 191.68-22.85 191.68-19.2 191.98-19.2Q193.68-20.85 195.48-21.85 197.28-22.85 198.98-23.05L198.98-23.05Q201.58-23.05 203.28-22 204.98-20.95 205.68-19L205.68-19 205.93-19Q207.68-20.7 209.6-21.75 211.53-22.8 213.28-23.05L213.28-23.05Q216.73-23.05 218.55-21.28 220.38-19.5 220.38-16.25L220.38-16.25ZM236.73-23.1Q240.48-23.1 242.55-20.88 244.63-18.65 244.63-14.65L244.63-14.65Q244.63-13.65 244.48-12.6L244.48-12.6 244.08-12.15 229.28-12.05 229.28-11.3Q229.28-6.85 231.3-4.35 233.33-1.85 236.98-1.85L236.98-1.85Q238.78-1.85 240.53-2.43 242.28-3 243.63-4L243.63-4 243.98-3.8 243.63-1.55Q240.38 0.3 236.68 0.3L236.68 0.3Q232.13 0.3 229.5-2.78 226.88-5.85 226.88-11.2L226.88-11.2Q226.88-14.8 228.08-17.5 229.28-20.2 231.53-21.65 233.78-23.1 236.73-23.1L236.73-23.1ZM242.13-14.15L242.23-15Q242.23-17.9 240.78-19.53 239.33-21.15 236.68-21.15L236.68-21.15Q233.83-21.15 231.93-19.23 230.03-17.3 229.48-13.95L229.48-13.95 242.13-14.15ZM260.92-22.8Q261.52-22.8 262.22-22.7L262.22-22.7 262.22-20.2 261.87-20.1Q260.97-20.25 260.27-20.25L260.27-20.25Q258.57-20.25 257.07-18.82 255.57-17.4 254.02-14.2L254.02-14.2 254.02-9.9 254.17 0 251.57 0 251.72-9.75 251.62-22.55 254.07-22.85 254.07-17.75 254.32-17.75Q257.17-22.8 260.92-22.8L260.92-22.8ZM298.32-16.25L298.27-9.85 298.32 0 295.72 0 295.92-15.75Q295.92-18.15 294.72-19.48 293.52-20.8 291.27-20.8L291.27-20.8Q289.47-20.8 287.62-19.78 285.77-18.75 284.02-16.85L284.02-16.85 284.02-16.25 283.97-9.85 284.02 0 281.42 0 281.62-15.75Q281.62-18.15 280.42-19.48 279.22-20.8 276.97-20.8L276.97-20.8Q273.42-20.8 269.62-16.7L269.62-16.7 269.62-9.9 269.72 0 267.12 0 267.27-9.75 267.17-22.55 269.62-22.85 269.62-19.2 269.92-19.2Q271.62-20.85 273.42-21.85 275.22-22.85 276.92-23.05L276.92-23.05Q279.52-23.05 281.22-22 282.92-20.95 283.62-19L283.62-19 283.87-19Q285.62-20.7 287.55-21.75 289.47-22.8 291.22-23.05L291.22-23.05Q294.67-23.05 296.5-21.28 298.32-19.5 298.32-16.25L298.32-16.25ZM313.57-23.1Q316.62-23.1 318.32-21.55 320.02-20 320.02-17.25L320.02-17.25Q320.02-16.2 319.92-14.48 319.82-12.75 319.77-10.8L319.77-10.8Q319.47-5.1 319.47-4.35L319.47-4.35Q319.47-3.05 319.84-2.53 320.22-2 321.12-2L321.12-2Q322.02-2 323.02-2.5L323.02-2.5 323.37-2.25 323.07-0.6Q321.87 0.15 320.52 0.2L320.52 0.2Q317.52 0.1 317.37-3.55L317.37-3.55 317.12-3.55Q314.27-0.3 311.22 0.3L311.22 0.3Q308.22 0.3 306.52-1.28 304.82-2.85 304.82-5.65L304.82-5.65Q304.82-9.7 309.22-10.7L309.22-10.7 317.52-12.65 317.62-16.7Q317.62-18.85 316.47-19.98 315.32-21.1 313.22-21.1L313.22-21.1Q310.02-21.1 306.22-17.85L306.22-17.85 305.92-18 305.52-19.85Q309.62-23.1 313.57-23.1L313.57-23.1ZM317.47-10.8L309.72-8.95Q307.17-8.35 307.17-5.95L307.17-5.95Q307.17-4.05 308.22-2.98 309.27-1.9 311.12-1.9L311.12-1.9Q312.62-1.9 314.19-2.95 315.77-4 317.27-5.95L317.27-5.95 317.47-10.8ZM343.17 0L343.32-15.75Q343.37-18.15 342.14-19.48 340.92-20.8 338.67-20.8L338.67-20.8Q336.87-20.8 334.97-19.73 333.07-18.65 331.32-16.65L331.32-16.65 331.27-9.9 331.42 0 328.82 0 328.97-9.75 328.87-22.55 331.32-22.85 331.32-19.2 331.57-19.2Q333.27-20.85 335.09-21.85 336.92-22.85 338.62-23.05L338.62-23.05Q342.07-23.05 343.92-21.28 345.77-19.5 345.72-16.25L345.72-16.25 345.67-9.85 345.77 0 343.17 0ZM367.96 0L368.11-15.75Q368.16-18.15 366.94-19.48 365.71-20.8 363.46-20.8L363.46-20.8Q361.66-20.8 359.76-19.73 357.86-18.65 356.11-16.65L356.11-16.65 356.06-9.9 356.21 0 353.61 0 353.76-9.75 353.66-22.55 356.11-22.85 356.11-19.2 356.36-19.2Q358.06-20.85 359.89-21.85 361.71-22.85 363.41-23.05L363.41-23.05Q366.86-23.05 368.71-21.28 370.56-19.5 370.51-16.25L370.51-16.25 370.46-9.85 370.56 0 367.96 0Z" opacity="1" transform="matrix(1,0,0,1,0,0)" fill="#ffffff" class="wordmark-text-0" data-fill-palette-color="primary" id="text-0"></path></svg></g></svg></g></svg></g></svg></g><g><svg viewBox="0 0 51.09259098749494 38.319443240621204" height="38.319443240621204" width="51.09259098749494"><g><svg xmlns="http://www.w3.org/2000/svg" xmlns:xlink="http://www.w3.org/1999/xlink" version="1.1" x="0" y="0" viewBox="14 19 80 60" enable-background="new 0 0 108.121 99.421" xml:space="preserve" width="51.09259098749494" height="38.319443240621204" class="icon-icon-0" data-fill-palette-color="accent" id="icon-0"><g fill="#ffffff" data-fill-palette-color="accent"></g><g fill="#ffffff" data-fill-palette-color="accent"></g><g fill="#ffffff" data-fill-palette-color="accent"></g><g fill="#ffffff" data-fill-palette-color="accent"></g><path d="M92 19H16c-1.104 0-2 0.896-2 2v45c0 1.104 0.896 2 2 2h76c1.104 0 2-0.896 2-2V21C94 19.896 93.104 19 92 19zM90 60H18V23h72V60z" fill="#ffffff" data-fill-palette-color="accent"></path><rect x="45" y="66" width="18" height="12" fill="#ffffff" data-fill-palette-color="accent"></rect><rect x="38" y="76" width="32" height="3" fill="#ffffff" data-fill-palette-color="accent"></rect><g fill="#ffffff" data-fill-palette-color="accent"><path d="M46.324 50.387L31.583 43.84v-2.508l14.741-7.377v4.33l-9.04 4.126 9.04 3.674V50.387z" fill="#ffffff" data-fill-palette-color="accent"></path><path d="M60.569 31.359l-7.947 21.915h-5.045l7.947-21.915H60.569z" fill="#ffffff" data-fill-palette-color="accent"></path><path d="M61.677 46.085l9.041-3.674-9.041-4.126v-4.33l14.741 7.377v2.508l-14.741 6.546V46.085z" fill="#ffffff" data-fill-palette-color="accent"></path></g></svg></g></svg></g></svg></g></svg></g></svg></g><path d="M177.374 102.096L177.374 36.599 3.371 36.599 3.371 210.601 177.374 210.601 177.374 145.104 175.35 145.104 175.35 208.578 5.394 208.578 5.394 38.622 175.35 38.622 175.35 102.096Z" fill="#ffffff" stroke="transparent" data-fill-palette-color="primary"></path></svg></g><defs></defs></svg><rect width="395.52" height="247.2" fill="none" stroke="none" visibility="hidden"></rect></g></svg></g></svg>